name C:\Users\u0101727\Documents\MyRepositories\predictivesimulations\OpenSimModel\subject1\EMG\EMG_gait_65.mot
datacolumns 25
datarows 19
range 1.11600000 1.13400000
endheader
time	HamL_r	TA_r	PerL_r	GL_r	HamM_r	Sol_r	VL_r	VM_r	PerB_l	TA_l	PerL_l	GL_l	GM_l	Sol_l	VL_l	VM_l	AddL_l	RF_l	TFL_l	GluMed_l	HamL_l	HamM_l	GluMed_r	RF_r	
          1.11600000	          0.00298932	          0.00397496	          0.00422566	          0.00416319	          0.00365709	          0.01983942	          0.02923443	          0.00357252	          0.03188966	          0.00408491	          0.01062506	          0.00771477	          0.00551553	          0.03533748	          0.00502437	          0.00410954	          0.00888104	          0.00424766	          0.00467696	          0.00608793	          0.00537642	          0.00623455	          0.03261284	          0.00955040	
          1.11700000	          0.00297747	          0.00398474	          0.00425410	          0.00414976	          0.00366892	          0.01996228	          0.02928380	          0.00357287	          0.03035711	          0.00400873	          0.01043947	          0.00727326	          0.00536401	          0.03354323	          0.00507076	          0.00410198	          0.00895069	          0.00422506	          0.00473138	          0.00612075	          0.00537992	          0.00624318	          0.03400738	          0.00957987	
          1.11800000	          0.00296568	          0.00399388	          0.00428076	          0.00413593	          0.00368220	          0.02007813	          0.02933990	          0.00357651	          0.02887266	          0.00393556	          0.01025801	          0.00686176	          0.00522648	          0.03179335	          0.00511751	          0.00409603	          0.00902270	          0.00420240	          0.00478530	          0.00615075	          0.00538330	          0.00625458	          0.03544913	          0.00962086	
          1.11900000	          0.00295405	          0.00400242	          0.00430539	          0.00412176	          0.00369696	          0.02018757	          0.02940313	          0.00358342	          0.02743862	          0.00386549	          0.01008124	          0.00647916	          0.00510201	          0.03009058	          0.00516436	          0.00409191	          0.00909693	          0.00417970	          0.00483862	          0.00617796	          0.00538658	          0.00626871	          0.03693781	          0.00967372	
          1.12000000	          0.00294270	          0.00401032	          0.00432771	          0.00410735	          0.00371324	          0.02029117	          0.02947380	          0.00359352	          0.02605697	          0.00379863	          0.00990961	          0.00612429	          0.00498973	          0.02843731	          0.00521106	          0.00408980	          0.00917329	          0.00415706	          0.00489130	          0.00620241	          0.00538972	          0.00628553	          0.03847293	          0.00973873	
          1.12100000	          0.00293175	          0.00401754	          0.00434744	          0.00409274	          0.00373110	          0.02038938	          0.02955197	          0.00360672	          0.02472939	          0.00373509	          0.00974354	          0.00579603	          0.00488891	          0.02683551	          0.00525735	          0.00408988	          0.00925168	          0.00413467	          0.00494332	          0.00622416	          0.00539267	          0.00630496	          0.04005399	          0.00981605	
          1.12200000	          0.00292131	          0.00402406	          0.00436430	          0.00407796	          0.00375055	          0.02048243	          0.02963748	          0.00362292	          0.02345725	          0.00367505	          0.00958339	          0.00549329	          0.00479890	          0.02528684	          0.00530297	          0.00409229	          0.00933199	          0.00411279	          0.00499474	          0.00624326	          0.00539538	          0.00632699	          0.04168054	          0.00990579	
          1.12300000	          0.00291151	          0.00402994	          0.00437803	          0.00406302	          0.00377157	          0.02057035	          0.02973002	          0.00364200	          0.02224161	          0.00361869	          0.00942952	          0.00521504	          0.00471915	          0.02379262	          0.00534771	          0.00409716	          0.00941406	          0.00409165	          0.00504571	          0.00625976	          0.00539775	          0.00635159	          0.04335208	          0.01000799	
          1.12400000	          0.00290245	          0.00403527	          0.00438843	          0.00404788	          0.00379407	          0.02065308	          0.02982928	          0.00366378	          0.02108322	          0.00356623	          0.00928223	          0.00496030	          0.00464911	          0.02235389	          0.00539141	          0.00410461	          0.00949778	          0.00407147	          0.00509649	          0.00627370	          0.00539966	          0.00637879	          0.04506789	          0.01012267	
          1.12500000	          0.00289424	          0.00404014	          0.00439532	          0.00403254	          0.00381795	          0.02073048	          0.02993493	          0.00368804	          0.01998256	          0.00351788	          0.00914182	          0.00472810	          0.00458825	          0.02097143	          0.00543402	          0.00411472	          0.00958308	          0.00405246	          0.00514734	          0.00628512	          0.00540099	          0.00640861	          0.04682681	          0.01024986	
          1.12600000	          0.00288696	          0.00404465	          0.00439861	          0.00401693	          0.00384307	          0.02080232	          0.03004667	          0.00371455	          0.01893978	          0.00347390	          0.00900848	          0.00451743	          0.00453604	          0.01964574	          0.00547559	          0.00412755	          0.00966990	          0.00403487	          0.00519856	          0.00629406	          0.00540166	          0.00644109	          0.04862705	          0.01038962	
          1.12700000	          0.00288070	          0.00404886	          0.00439835	          0.00400099	          0.00386925	          0.02086835	          0.03016443	          0.00374306	          0.01795478	          0.00343456	          0.00888247	          0.00432728	          0.00449197	          0.01837710	          0.00551628	          0.00414314	          0.00975820	          0.00401897	          0.00525046	          0.00630058	          0.00540160	          0.00647623	          0.05046630	          0.01054200	
          1.12800000	          0.00287561	          0.00405282	          0.00439471	          0.00398467	          0.00389629	          0.02092839	          0.03028845	          0.00377334	          0.01702718	          0.00340019	          0.00876407	          0.00415666	          0.00445559	          0.01716559	          0.00555626	          0.00416151	          0.00984789	          0.00400504	          0.00530336	          0.00630475	          0.00540076	          0.00651400	          0.05234196	          0.01070705	
          1.12900000	          0.00287182	          0.00405655	          0.00438793	          0.00396795	          0.00392399	          0.02098230	          0.03041924	          0.00380516	          0.01615638	          0.00337113	          0.00865358	          0.00400461	          0.00442641	          0.01601103	          0.00559566	          0.00418269	          0.00993883	          0.00399339	          0.00535749	          0.00630667	          0.00539911	          0.00655435	          0.05425146	          0.01088476	
          1.13000000	          0.00286951	          0.00406004	          0.00437831	          0.00395090	          0.00395216	          0.02102983	          0.03055743	          0.00383828	          0.01534163	          0.00334773	          0.00855121	          0.00387025	          0.00440398	          0.01491307	          0.00563460	          0.00420670	          0.01003082	          0.00398436	          0.00541309	          0.00630645	          0.00539662	          0.00659727	          0.05619246	          0.01107507	
          1.13100000	          0.00286880	          0.00406329	          0.00436610	          0.00393358	          0.00398058	          0.02107070	          0.03070379	          0.00387245	          0.01458203	          0.00333034	          0.00845713	          0.00375281	          0.00438785	          0.01387117	          0.00567309	          0.00423357	          0.01012358	          0.00397830	          0.00547035	          0.00630419	          0.00539334	          0.00664273	          0.05816272	          0.01127785	
          1.13200000	          0.00286978	          0.00406624	          0.00435159	          0.00391609	          0.00400904	          0.02110465	          0.03085923	          0.00390742	          0.01387661	          0.00331936	          0.00837142	          0.00365158	          0.00437759	          0.01288463	          0.00571109	          0.00426329	          0.01021683	          0.00397553	          0.00552942	          0.00629993	          0.00538934	          0.00669069	          0.06015990	          0.01149292	
          1.13300000	          0.00287256	          0.00406881	          0.00433497	          0.00389846	          0.00403729	          0.02113160	          0.03102460	          0.00394294	          0.01322421	          0.00331524	          0.00829414	          0.00356588	          0.00437279	          0.01195262	          0.00574849	          0.00429580	          0.01031024	          0.00397635	          0.00559041	          0.00629376	          0.00538472	          0.00674105	          0.06218146	          0.01171997	
          1.13400000	          0.00287721	          0.00407089	          0.00431645	          0.00388074	          0.00406510	          0.02115154	          0.03120048	          0.00397875	          0.01262354	          0.00331843	          0.00822532	          0.00349502	          0.00437308	          0.01107420	          0.00578512	          0.00433101	          0.01040347	          0.00398104	          0.00565336	          0.00628575	          0.00537962	          0.00679370	          0.06422466	          0.01195867	
